<svg width="73" height="19" viewBox="0 0 73 19" fill="none" xmlns="http://www.w3.org/2000/svg">
<path d="M7.1472 18.3648C5.84203 18.3648 4.75168 18.0608 3.87616 17.4528C3.00064 16.8448 2.33995 16.0179 1.89408 14.9722C1.45632 13.9264 1.23744 12.7469 1.23744 11.4336C1.23744 10.1203 1.45632 8.9408 1.89408 7.89504C2.33184 6.84928 2.97632 6.0224 3.82752 5.4144C4.67872 4.8064 5.72853 4.5024 6.97696 4.5024C8.23349 4.5024 9.32789 4.80235 10.2602 5.40224C11.1924 6.00213 11.9139 6.82496 12.4246 7.87072C12.9435 8.90837 13.2029 10.096 13.2029 11.4336C13.2029 12.7469 12.9475 13.9264 12.4368 14.9722C11.9342 16.0179 11.2289 16.8448 10.321 17.4528C9.41301 18.0608 8.35509 18.3648 7.1472 18.3648ZM0.67808 18V0.489598H4.00992V9.0016H3.59648V18H0.67808ZM6.61216 15.4221C7.32555 15.4221 7.90923 15.2437 8.3632 14.887C8.81717 14.5303 9.1536 14.0521 9.37248 13.4522C9.59136 12.8442 9.7008 12.1713 9.7008 11.4336C9.7008 10.704 9.58731 10.0393 9.36032 9.43936C9.13333 8.83136 8.78069 8.34901 8.3024 7.99232C7.83221 7.62752 7.22827 7.44512 6.49056 7.44512C5.80149 7.44512 5.24213 7.61131 4.81248 7.94368C4.39093 8.27605 4.08288 8.74219 3.88832 9.34208C3.69376 9.94197 3.59648 10.6391 3.59648 11.4336C3.59648 12.2281 3.69376 12.9252 3.88832 13.5251C4.08288 14.125 4.39904 14.5911 4.8368 14.9235C5.28267 15.2559 5.87445 15.4221 6.61216 15.4221ZM13.5683 18V0.124798H16.8758V18H13.5683ZM23.8775 18.3648C22.5561 18.3648 21.3968 18.0689 20.3997 17.4771C19.4026 16.8853 18.6243 16.0706 18.065 15.033C17.5137 13.9872 17.2381 12.7874 17.2381 11.4336C17.2381 10.0636 17.5218 8.85973 18.0893 7.82208C18.6568 6.77632 19.4391 5.9616 20.4362 5.37792C21.4333 4.79424 22.5804 4.5024 23.8775 4.5024C25.1988 4.5024 26.3581 4.79829 27.3552 5.39008C28.3604 5.98187 29.1427 6.80064 29.7021 7.8464C30.2615 8.88405 30.5411 10.0798 30.5411 11.4336C30.5411 12.7955 30.2574 13.9994 29.6899 15.0451C29.1306 16.0828 28.3483 16.8975 27.3431 17.4893C26.3459 18.073 25.1907 18.3648 23.8775 18.3648ZM23.8775 15.2762C24.9394 15.2762 25.7298 14.9195 26.2487 14.2061C26.7756 13.4846 27.0391 12.5604 27.0391 11.4336C27.0391 10.2662 26.7715 9.33397 26.2365 8.6368C25.7096 7.93963 24.9232 7.59104 23.8775 7.59104C23.156 7.59104 22.5642 7.75317 22.1021 8.07744C21.64 8.40171 21.2955 8.85163 21.0685 9.4272C20.8496 10.0028 20.7402 10.6716 20.7402 11.4336C20.7402 12.6091 21.0036 13.5454 21.5306 14.2426C22.0656 14.9316 22.8479 15.2762 23.8775 15.2762ZM36.4498 18.3648C35.0878 18.3648 33.9205 18.0608 32.9477 17.4528C31.9749 16.8448 31.2291 16.0179 30.7102 14.9722C30.1914 13.9264 29.932 12.7469 29.932 11.4336C29.932 10.1041 30.1995 8.91648 30.7346 7.87072C31.2777 6.82496 32.0397 6.00213 33.0206 5.40224C34.0016 4.80235 35.1608 4.5024 36.4984 4.5024C38.0468 4.5024 39.3438 4.89557 40.3896 5.68192C41.4435 6.46016 42.1163 7.52619 42.4082 8.88L39.1006 9.75552C38.9061 9.07456 38.5656 8.54357 38.0792 8.16256C37.6009 7.78155 37.0578 7.59104 36.4498 7.59104C35.7526 7.59104 35.1811 7.76128 34.7352 8.10176C34.2893 8.43413 33.961 8.89216 33.7502 9.47584C33.5395 10.0514 33.4341 10.704 33.4341 11.4336C33.4341 12.5766 33.6854 13.5049 34.188 14.2182C34.6987 14.9235 35.4526 15.2762 36.4498 15.2762C37.1956 15.2762 37.763 15.1059 38.1522 14.7654C38.5413 14.425 38.8331 13.9386 39.0277 13.3062L42.4082 14.0115C42.0353 15.4059 41.33 16.48 40.2923 17.2339C39.2547 17.9878 37.9738 18.3648 36.4498 18.3648ZM42.2624 18L42.2868 0.489598H45.6429V11.1904L50.0935 4.8672H54.1792L49.4368 11.4336L54.4954 18H50.1908L45.6429 11.6768V18H42.2624Z" fill="url(#paint0_linear_439_9096)"/>
<path d="M56.1919 18V4.08896L52.9087 6.10752V2.45952L56.1919 0.489598H59.5724V18H56.1919ZM66.7493 18.3162C65.8737 18.3162 65.0387 18.1419 64.2443 17.7933C63.4498 17.4366 62.7567 16.938 62.1649 16.2976C61.5813 15.6572 61.1638 14.9033 60.9125 14.0358L64.1227 13.1846C64.2929 13.8251 64.6253 14.3236 65.1198 14.6803C65.6224 15.0289 66.1656 15.2032 66.7493 15.2032C67.2519 15.2032 67.7099 15.0816 68.1233 14.8384C68.5449 14.5952 68.8773 14.2669 69.1205 13.8534C69.3718 13.44 69.4974 12.982 69.4974 12.4794C69.4974 11.7254 69.238 11.081 68.7192 10.5459C68.2085 10.0028 67.5518 9.7312 66.7493 9.7312C66.5061 9.7312 66.271 9.76768 66.044 9.84064C65.817 9.90549 65.5981 9.99872 65.3873 10.1203L63.9038 7.51808L69.4731 2.89728L69.7163 3.60256H61.5934V0.489598H72.5374V3.60256L68.2085 7.7856L68.1841 6.86144C69.1894 7.01547 70.0365 7.36811 70.7256 7.91936C71.4227 8.46251 71.9497 9.13536 72.3064 9.93792C72.6712 10.7324 72.8536 11.5795 72.8536 12.4794C72.8536 13.5819 72.5739 14.5749 72.0145 15.4586C71.4552 16.3341 70.7134 17.0313 69.7893 17.5501C68.8651 18.0608 67.8518 18.3162 66.7493 18.3162Z" fill="url(#paint1_angular_439_9096)"/>
<defs>
<linearGradient id="paint0_linear_439_9096" x1="2.54667" y1="-2.93333" x2="52.2" y2="25.44" gradientUnits="userSpaceOnUse">
<stop offset="0.254083" stop-color="white"/>
<stop offset="0.647942" stop-color="white" stop-opacity="0.73"/>
<stop offset="0.777657" stop-color="white"/>
</linearGradient>
<radialGradient id="paint1_angular_439_9096" cx="0" cy="0" r="1" gradientUnits="userSpaceOnUse" gradientTransform="translate(36.8084 8.76109) rotate(23.4396) scale(29.4449 22.7219)">
<stop offset="0.390625" stop-color="#F3D7AF"/>
<stop offset="0.683294" stop-color="#CB9453"/>
<stop offset="1" stop-color="#D6AF80"/>
</radialGradient>
</defs>
</svg>
